General

Complete name                    : Frankenweenie[2012]BRrip[Ac3-5.1]-=[CaLvIn]=-
Format                           : AVI
Format/Info                      : Audio Video Interleave
File size                        : 700 MiB
Duration                         : 1h 26mn
Overall bit rate                 : 1 125 Kbps
Writing application              : VirtualDubMod 1.5.10.3 | www.virtualdub-fr.org || (build 2550/release)
Writing library                  : VirtualDubMod build 2550/release

Video

ID                               : 0
Format                           : MPEG-4 Visual
Format profile                   : Advanced Simple@L5
Format settings, BVOP            : 2
Format settings, QPel            : No
Format settings, GMC             : No warppoints
Format settings, Matrix          : Default (H.263)
Codec ID                         : XVID
Codec ID/Hint                    : XviD
Duration                         : 1h 26mn
Bit rate                         : 860 Kbps
Width                            : 720 pixels
Height                           : 384 pixels
Display aspect ratio             : 16:9
Frame rate                       : 23.976 fps
Color space                      : YUV
Chroma subsampling               : 4:2:0
Bit depth                        : 8 bits
Scan type                        : Progressive
Compression mode                 : Lossy
Bits/(Pixel*Frame)               : 0.130
Stream size                      : 535 MiB (76%)
Writing library                  : XviD 1.2.1 (UTC 2008-12-04)

Audio

ID                               : 1
Format                           : AC-3
Format/Info                      : Audio Coding 3
Mode extension                   : CM (complete main)
Codec ID                         : 2000
Duration                         : 1h 26mn
Bit rate mode                    : Constant
Bit rate                         : 256 Kbps
Channel(s)                       : 6 channels
Channel positions                : Front: L C R, Side: L R, LFE
Sampling rate                    : 48.0 KHz
Bit depth                        : 16 bits
Compression mode                 : Lossy
Stream size                      : 159 MiB (23%)
Alignment                        : Split accross interleaves
Interleave, duration             : 42 ms (1.00 video frame)
Interleave, preload duration     : 500 ms

Screens
 
http://img266.imageshack.us/img266/7534/36894416.png 
http://img834.imageshack.us/img834/715/81097821.png 
http://img805.imageshack.us/img805/8468/72987470.png 
http://img195.imageshack.us/img195/9034/54000717.png 
http://img692.imageshack.us/img692/1728/92666955.png 
http://img33.imageshack.us/img33/5682/46373269.png 
http://img217.imageshack.us/img217/8203/61204075.png 
http://img145.imageshack.us/img145/5120/62715488.png 
http://img141.imageshack.us/img141/3931/25291493.png 
http://img189.imageshack.us/img189/7158/19069552.png